<mxfile host="app.diagrams.net" modified="2023-11-10T06:35:55.449Z" agent="Mozilla/5.0 (Windows NT 10.0; Win64; x64) AppleWebKit/537.36 (KHTML, like Gecko) Chrome/119.0.0.0 Safari/537.36" etag="SJtKTrjOTiAHquzyiaB0" version="22.1.0" type="device">
  <diagram id="R2lEEEUBdFMjLlhIrx00" name="Page-1">
    <mxGraphModel dx="1050" dy="530" grid="1" gridSize="10" guides="1" tooltips="1" connect="1" arrows="1" fold="1" page="1" pageScale="1" pageWidth="850" pageHeight="1100" math="0" shadow="0" extFonts="Permanent Marker^https://fonts.googleapis.com/css?family=Permanent+Marker">
      <root>
        <mxCell id="0" />
        <mxCell id="1" parent="0" />
        <mxCell id="NA1nhkugpeoWxUsjXfRd-34" value="Housing Design  " style="swimlane;childLayout=stackLayout;horizontal=1;startSize=50;horizontalStack=0;rounded=1;fontSize=14;fontStyle=0;strokeWidth=2;resizeParent=0;resizeLast=1;shadow=0;dashed=0;align=center;arcSize=4;whiteSpace=wrap;html=1;" vertex="1" parent="1">
          <mxGeometry x="80" y="40" width="160" height="140" as="geometry" />
        </mxCell>
        <mxCell id="NA1nhkugpeoWxUsjXfRd-35" value="+DesignID (PK)&lt;br&gt;+DesignName&lt;br&gt;+Architect&lt;br&gt;+DesignType&lt;br&gt;+EstimatedCost" style="align=left;strokeColor=none;fillColor=none;spacingLeft=4;fontSize=12;verticalAlign=top;resizable=0;rotatable=0;part=1;html=1;" vertex="1" parent="NA1nhkugpeoWxUsjXfRd-34">
          <mxGeometry y="50" width="160" height="90" as="geometry" />
        </mxCell>
        <mxCell id="NA1nhkugpeoWxUsjXfRd-37" value="Customer Order" style="swimlane;childLayout=stackLayout;horizontal=1;startSize=50;horizontalStack=0;rounded=1;fontSize=14;fontStyle=0;strokeWidth=2;resizeParent=0;resizeLast=1;shadow=0;dashed=0;align=center;arcSize=4;whiteSpace=wrap;html=1;" vertex="1" parent="1">
          <mxGeometry x="320" y="40" width="160" height="140" as="geometry" />
        </mxCell>
        <mxCell id="NA1nhkugpeoWxUsjXfRd-38" value="+OrderID (PK)&lt;br&gt;+CustomerID (FK)&lt;br&gt;+DesignID (FK)&lt;br&gt;+OrderDate&lt;br&gt;+OrderStatus" style="align=left;strokeColor=none;fillColor=none;spacingLeft=4;fontSize=12;verticalAlign=top;resizable=0;rotatable=0;part=1;html=1;" vertex="1" parent="NA1nhkugpeoWxUsjXfRd-37">
          <mxGeometry y="50" width="160" height="90" as="geometry" />
        </mxCell>
        <mxCell id="NA1nhkugpeoWxUsjXfRd-44" value="Material Inventory" style="swimlane;childLayout=stackLayout;horizontal=1;startSize=50;horizontalStack=0;rounded=1;fontSize=14;fontStyle=0;strokeWidth=2;resizeParent=0;resizeLast=1;shadow=0;dashed=0;align=center;arcSize=4;whiteSpace=wrap;html=1;" vertex="1" parent="1">
          <mxGeometry x="79" y="240" width="160" height="140" as="geometry" />
        </mxCell>
        <mxCell id="NA1nhkugpeoWxUsjXfRd-45" value="+MaterialID (PK)&lt;br&gt;+MaterialName&lt;br&gt;+Quantity&lt;br&gt;+Supplier&lt;br&gt;+UnitPrice" style="align=left;strokeColor=none;fillColor=none;spacingLeft=4;fontSize=12;verticalAlign=top;resizable=0;rotatable=0;part=1;html=1;" vertex="1" parent="NA1nhkugpeoWxUsjXfRd-44">
          <mxGeometry y="50" width="160" height="90" as="geometry" />
        </mxCell>
        <mxCell id="NA1nhkugpeoWxUsjXfRd-46" value="Employee" style="swimlane;childLayout=stackLayout;horizontal=1;startSize=50;horizontalStack=0;rounded=1;fontSize=14;fontStyle=0;strokeWidth=2;resizeParent=0;resizeLast=1;shadow=0;dashed=0;align=center;arcSize=4;whiteSpace=wrap;html=1;" vertex="1" parent="1">
          <mxGeometry x="320" y="240" width="160" height="140" as="geometry" />
        </mxCell>
        <mxCell id="NA1nhkugpeoWxUsjXfRd-47" value="+EmployeeID (PK)&lt;br&gt;+FirstName&lt;br&gt;+LastName&lt;br&gt;+Position&lt;br&gt;+Email" style="align=left;strokeColor=none;fillColor=none;spacingLeft=4;fontSize=12;verticalAlign=top;resizable=0;rotatable=0;part=1;html=1;" vertex="1" parent="NA1nhkugpeoWxUsjXfRd-46">
          <mxGeometry y="50" width="160" height="90" as="geometry" />
        </mxCell>
        <mxCell id="NA1nhkugpeoWxUsjXfRd-48" value="Customer Profile" style="swimlane;childLayout=stackLayout;horizontal=1;startSize=50;horizontalStack=0;rounded=1;fontSize=14;fontStyle=0;strokeWidth=2;resizeParent=0;resizeLast=1;shadow=0;dashed=0;align=center;arcSize=4;whiteSpace=wrap;html=1;" vertex="1" parent="1">
          <mxGeometry x="550" y="40" width="160" height="140" as="geometry">
            <mxRectangle x="600" y="120" width="140" height="50" as="alternateBounds" />
          </mxGeometry>
        </mxCell>
        <mxCell id="NA1nhkugpeoWxUsjXfRd-49" value="+CustomerID (PK)&lt;br&gt;+FirstName&lt;br&gt;+LastName&lt;br&gt;+Email" style="align=left;strokeColor=none;fillColor=none;spacingLeft=4;fontSize=12;verticalAlign=top;resizable=0;rotatable=0;part=1;html=1;" vertex="1" parent="NA1nhkugpeoWxUsjXfRd-48">
          <mxGeometry y="50" width="160" height="90" as="geometry" />
        </mxCell>
        <mxCell id="NA1nhkugpeoWxUsjXfRd-50" value="" style="endArrow=none;html=1;rounded=0;dashed=1;dashPattern=1 2;exitX=1.022;exitY=0.347;exitDx=0;exitDy=0;exitPerimeter=0;entryX=-0.018;entryY=0.338;entryDx=0;entryDy=0;entryPerimeter=0;" edge="1" parent="1" source="NA1nhkugpeoWxUsjXfRd-35" target="NA1nhkugpeoWxUsjXfRd-38">
          <mxGeometry relative="1" as="geometry">
            <mxPoint x="490" y="190" as="sourcePoint" />
            <mxPoint x="650" y="190" as="targetPoint" />
          </mxGeometry>
        </mxCell>
        <mxCell id="NA1nhkugpeoWxUsjXfRd-51" value="M" style="resizable=0;html=1;whiteSpace=wrap;align=left;verticalAlign=bottom;" connectable="0" vertex="1" parent="NA1nhkugpeoWxUsjXfRd-50">
          <mxGeometry x="-1" relative="1" as="geometry" />
        </mxCell>
        <mxCell id="NA1nhkugpeoWxUsjXfRd-52" value="N" style="resizable=0;html=1;whiteSpace=wrap;align=right;verticalAlign=bottom;" connectable="0" vertex="1" parent="NA1nhkugpeoWxUsjXfRd-50">
          <mxGeometry x="1" relative="1" as="geometry" />
        </mxCell>
        <mxCell id="NA1nhkugpeoWxUsjXfRd-53" value="" style="endArrow=none;html=1;rounded=0;entryX=0.5;entryY=0;entryDx=0;entryDy=0;exitX=0.5;exitY=1;exitDx=0;exitDy=0;" edge="1" parent="1" source="NA1nhkugpeoWxUsjXfRd-35" target="NA1nhkugpeoWxUsjXfRd-44">
          <mxGeometry relative="1" as="geometry">
            <mxPoint x="490" y="190" as="sourcePoint" />
            <mxPoint x="650" y="190" as="targetPoint" />
          </mxGeometry>
        </mxCell>
        <mxCell id="NA1nhkugpeoWxUsjXfRd-54" value="" style="endArrow=none;html=1;rounded=0;entryX=0.5;entryY=0;entryDx=0;entryDy=0;" edge="1" parent="1" target="NA1nhkugpeoWxUsjXfRd-46">
          <mxGeometry relative="1" as="geometry">
            <mxPoint x="400" y="180" as="sourcePoint" />
            <mxPoint x="330" y="210" as="targetPoint" />
            <Array as="points">
              <mxPoint x="400" y="200" />
            </Array>
          </mxGeometry>
        </mxCell>
        <mxCell id="NA1nhkugpeoWxUsjXfRd-55" value="N" style="resizable=0;html=1;whiteSpace=wrap;align=right;verticalAlign=bottom;" connectable="0" vertex="1" parent="NA1nhkugpeoWxUsjXfRd-54">
          <mxGeometry x="1" relative="1" as="geometry" />
        </mxCell>
        <mxCell id="NA1nhkugpeoWxUsjXfRd-60" value="" style="endArrow=none;html=1;rounded=0;exitX=0;exitY=0.5;exitDx=0;exitDy=0;entryX=0.5;entryY=0;entryDx=0;entryDy=0;" edge="1" parent="1" source="NA1nhkugpeoWxUsjXfRd-48" target="NA1nhkugpeoWxUsjXfRd-37">
          <mxGeometry relative="1" as="geometry">
            <mxPoint x="490" y="190" as="sourcePoint" />
            <mxPoint x="420" y="20" as="targetPoint" />
            <Array as="points">
              <mxPoint x="520" y="110" />
              <mxPoint x="520" y="20" />
              <mxPoint x="400" y="20" />
            </Array>
          </mxGeometry>
        </mxCell>
        <mxCell id="NA1nhkugpeoWxUsjXfRd-61" value="N" style="resizable=0;html=1;whiteSpace=wrap;align=right;verticalAlign=bottom;" connectable="0" vertex="1" parent="NA1nhkugpeoWxUsjXfRd-60">
          <mxGeometry x="1" relative="1" as="geometry" />
        </mxCell>
        <mxCell id="NA1nhkugpeoWxUsjXfRd-64" value="" style="edgeStyle=orthogonalEdgeStyle;rounded=0;orthogonalLoop=1;jettySize=auto;html=1;" edge="1" parent="1" source="NA1nhkugpeoWxUsjXfRd-63" target="NA1nhkugpeoWxUsjXfRd-49">
          <mxGeometry relative="1" as="geometry" />
        </mxCell>
        <mxCell id="NA1nhkugpeoWxUsjXfRd-63" value="Actor" style="shape=umlActor;verticalLabelPosition=bottom;verticalAlign=top;html=1;outlineConnect=0;" vertex="1" parent="1">
          <mxGeometry x="615" y="240" width="30" height="60" as="geometry" />
        </mxCell>
      </root>
    </mxGraphModel>
  </diagram>
</mxfile>
